<svg width="8" height="13" viewBox="0 0 8 13" fill="none" xmlns="http://www.w3.org/2000/svg">
<path d="M4.25 4.95833H7.4375L7.08333 6.375H4.25V12.75H2.83333V6.375H0V4.95833H2.83333V3.63233C2.83333 2.36937 2.96508 1.91108 3.21158 1.44925C3.45331 0.993078 3.82641 0.619976 4.28258 0.37825C4.74442 0.13175 5.20271 0 6.46567 0C6.83589 0 7.15983 0.0354167 7.4375 0.10625V1.41667H6.46567C5.52783 1.41667 5.24237 1.47192 4.95054 1.62775C4.74107 1.73719 4.57022 1.90828 4.46108 2.11792C4.30525 2.40904 4.25 2.6945 4.25 3.63233V4.95833Z" fill="white"/>
</svg>
