<svg width="15" height="15" viewBox="0 0 15 15" fill="none" xmlns="http://www.w3.org/2000/svg">
<path d="M7.37508 10.2083C8.12653 10.2083 8.8472 9.90978 9.37855 9.37843C9.9099 8.84708 10.2084 8.12641 10.2084 7.37496C10.2084 6.62351 9.9099 5.90284 9.37855 5.37149C8.8472 4.84014 8.12653 4.54163 7.37508 4.54163C6.62363 4.54163 5.90297 4.84014 5.37161 5.37149C4.84026 5.90284 4.54175 6.62351 4.54175 7.37496C4.54175 8.12641 4.84026 8.84708 5.37161 9.37843C5.90297 9.90978 6.62363 10.2083 7.37508 10.2083Z" stroke="white" stroke-width="1.5" stroke-linecap="round" stroke-linejoin="round"/>
<path d="M1 10.2083V4.54167C1 3.60236 1.37314 2.70152 2.03733 2.03733C2.70152 1.37314 3.60236 1 4.54167 1H10.2083C11.1476 1 12.0485 1.37314 12.7127 2.03733C13.3769 2.70152 13.75 3.60236 13.75 4.54167V10.2083C13.75 11.1476 13.3769 12.0485 12.7127 12.7127C12.0485 13.3769 11.1476 13.75 10.2083 13.75H4.54167C3.60236 13.75 2.70152 13.3769 2.03733 12.7127C1.37314 12.0485 1 11.1476 1 10.2083Z" stroke="white" stroke-width="1.5"/>
<path d="M11.2708 3.48631L11.2778 3.47852" stroke="white" stroke-width="1.5" stroke-linecap="round" stroke-linejoin="round"/>
</svg>
