<svg width="17" height="18" viewBox="0 0 17 18" fill="none" xmlns="http://www.w3.org/2000/svg">
<path d="M14.5226 2.48598C13.7393 1.69501 12.8064 1.06786 11.7783 0.641059C10.7501 0.214262 9.64736 -0.0036419 8.53417 4.60411e-05C3.86985 4.60411e-05 0.0683418 3.80155 0.0683418 8.46588C0.0683418 9.96085 0.461307 11.4131 1.19598 12.6945L0 17.0855L4.48492 15.9066C5.72362 16.5815 7.11608 16.9402 8.53417 16.9402C13.1985 16.9402 17 13.1387 17 8.47442C17 6.2106 16.1201 4.08346 14.5226 2.48598ZM8.53417 15.5051C7.26985 15.5051 6.03116 15.1634 4.94623 14.5227L4.68995 14.3689L2.02462 15.0694L2.73367 12.4724L2.56281 12.2076C1.86022 11.086 1.48722 9.78938 1.48643 8.46588C1.48643 4.58748 4.64724 1.42668 8.52563 1.42668C10.405 1.42668 12.1734 2.16135 13.4975 3.49402C14.1532 4.14656 14.6729 4.92282 15.0263 5.77776C15.3797 6.63271 15.5599 7.54931 15.5563 8.47442C15.5734 12.3528 12.4126 15.5051 8.53417 15.5051ZM12.3955 10.2428C12.1819 10.1402 11.1397 9.62768 10.9518 9.5508C10.7553 9.48246 10.6186 9.44829 10.4734 9.65331C10.3281 9.86688 9.92663 10.3453 9.80703 10.482C9.68744 10.6272 9.5593 10.6443 9.34573 10.5332C9.13216 10.4307 8.44874 10.2 7.64573 9.48246C7.01357 8.91864 6.59497 8.22668 6.46683 8.01311C6.34724 7.79954 6.44975 7.68849 6.5608 7.57743C6.65477 7.48346 6.77437 7.32969 6.87688 7.2101C6.9794 7.0905 7.02211 6.99653 7.09045 6.85985C7.15879 6.71462 7.12462 6.59502 7.07337 6.49251C7.02211 6.39 6.59497 5.34778 6.42412 4.92065C6.25327 4.5106 6.07387 4.56185 5.94573 4.55331H5.53568C5.39045 4.55331 5.16834 4.60457 4.97186 4.81814C4.78392 5.0317 4.23719 5.54427 4.23719 6.58648C4.23719 7.62869 4.99749 8.63673 5.1 8.77341C5.20251 8.91864 6.59497 11.0543 8.71357 11.9684C9.21759 12.1905 9.61055 12.3186 9.91809 12.4126C10.4221 12.5749 10.8834 12.5493 11.2508 12.498C11.6608 12.4382 12.5065 11.9855 12.6774 11.49C12.8568 10.9945 12.8568 10.5759 12.797 10.482C12.7372 10.388 12.609 10.3453 12.3955 10.2428Z" fill="white"/>
</svg>
