<svg width="28" height="20" viewBox="0 0 28 20" fill="none" xmlns="http://www.w3.org/2000/svg">
<path d="M21.8236 9.58831L16.1177 15.2942L15.2942 14.4707L20.1765 9.58831L15.2942 4.70595L16.1177 3.88242L21.8236 9.58831Z" fill="white"/>
<path d="M0 10.1763L0 8.9998L21.1765 8.9998V10.1763L0 10.1763Z" fill="white"/>
<path d="M27.0591 10C27.0591 15.5294 22.5885 20 17.0591 20C11.5297 20 7.05908 15.5294 7.05908 10C7.05908 4.47059 11.5297 0 17.0591 0C22.5885 0 27.0591 4.47059 27.0591 10ZM8.23555 10C8.23555 14.8824 12.1767 18.8235 17.0591 18.8235C21.9414 18.8235 25.8826 14.8824 25.8826 10C25.8826 5.11765 21.9414 1.17647 17.0591 1.17647C12.1767 1.17647 8.23555 5.11765 8.23555 10Z" fill="white"/>
</svg>
